<svg width="24" height="24" viewBox="0 0 24 24" fill="none" xmlns="http://www.w3.org/2000/svg">
<path d="M3.11612 18.6725C2.62796 19.1607 2.62796 19.9521 3.11612 20.4403C3.60427 20.9284 4.39573 20.9284 4.88388 20.4403L3.11612 18.6725ZM20.4402 4.88393C20.9284 4.39578 20.9284 3.60432 20.4402 3.11616C19.9521 2.62801 19.1606 2.62801 18.6725 3.11616L20.4402 4.88393ZM4.88388 20.4403L20.4402 4.88393L18.6725 3.11616L3.11612 18.6725L4.88388 20.4403Z" fill="black"/>
<path d="M4.88388 3.11612C4.39573 2.62796 3.60427 2.62796 3.11612 3.11612C2.62796 3.60427 2.62796 4.39573 3.11612 4.88388L4.88388 3.11612ZM18.6725 20.4402C19.1606 20.9284 19.9521 20.9284 20.4402 20.4402C20.9284 19.9521 20.9284 19.1606 20.4402 18.6725L18.6725 20.4402ZM3.11612 4.88388L18.6725 20.4402L20.4402 18.6725L4.88388 3.11612L3.11612 4.88388Z" fill="black"/>
</svg>
