<svg width="1357" height="378" viewBox="0 0 1357 378" fill="none" xmlns="http://www.w3.org/2000/svg">
<path d="M126.164 118.872C126.164 60.8576 51.6088 70.9793 51.6088 48.514C51.6088 41.1078 57.2868 36.4172 65.6805 36.4172C74.5679 36.4172 82.4678 42.8359 83.7021 54.4389L124.436 44.0703C119.745 16.4206 99.2551 0.62079 65.6805 0.62079C31.6121 0.62079 4.70308 20.6174 4.70308 52.9577C4.70308 109.491 78.7647 98.8758 78.7647 122.329C78.7647 130.229 72.346 134.425 63.4586 134.425C52.1025 134.425 42.2276 126.526 40.7464 112.948L0.753128 127.76C6.18431 153.928 29.884 170.469 63.4586 170.469C97.2801 170.469 126.164 151.953 126.164 118.872ZM215.262 168V41.8484H256.243V3.08951H126.882V41.8484H168.11V168H215.262ZM330.481 76.6574H313.2V40.8609H330.481C341.837 40.8609 346.527 46.7859 346.527 58.3888C346.527 70.9793 341.59 76.6574 330.481 76.6574ZM401.827 168C397.136 162.322 394.667 156.397 393.186 148.497L388.002 118.872C385.039 104.307 376.893 96.1603 364.302 93.4447V92.9509C380.102 89.7416 394.667 75.6699 394.667 52.7108C394.667 18.8893 372.449 3.08951 336.159 3.08951H266.788V168H313.2V112.207H327.518C336.159 112.207 340.602 116.157 342.331 126.032L345.293 149.238C346.774 157.631 348.502 163.063 351.959 168H401.827ZM453.184 107.023V3.08951H406.032V107.269C406.032 150.719 431.953 170.469 470.465 170.469C508.977 170.469 534.899 150.719 534.899 107.269V3.08951H487.746V107.023C487.746 120.601 483.796 131.463 470.465 131.463C456.887 131.463 453.184 120.601 453.184 107.023ZM614.606 170.469C647.44 170.469 669.412 151.46 674.843 121.094L632.134 106.035C630.9 119.366 626.209 130.722 614.36 130.722C601.275 130.722 592.635 117.144 592.635 85.5448C592.635 53.9451 601.275 40.6141 614.36 40.6141C625.962 40.6141 630.653 51.4764 631.887 64.8075L674.843 49.5014C669.412 19.3831 647.193 0.62079 614.606 0.62079C570.91 0.62079 544.001 31.2329 544.001 85.5448C544.001 139.857 570.91 170.469 614.606 170.469ZM765.627 168V41.8484H806.608V3.08951H677.247V41.8484H718.474V168H765.627ZM862.824 107.023V3.08951H815.671V107.269C815.671 150.719 841.593 170.469 880.105 170.469C918.617 170.469 944.538 150.719 944.538 107.269V3.08951H897.386V107.023C897.386 120.601 893.436 131.463 880.105 131.463C866.527 131.463 862.824 120.601 862.824 107.023ZM1023.26 76.6574H1005.98V40.8609H1023.26C1034.61 40.8609 1039.3 46.7859 1039.3 58.3888C1039.3 70.9793 1034.37 76.6574 1023.26 76.6574ZM1094.6 168C1089.91 162.322 1087.45 156.397 1085.96 148.497L1080.78 118.872C1077.82 104.307 1069.67 96.1603 1057.08 93.4447V92.9509C1072.88 89.7416 1087.45 75.6699 1087.45 52.7108C1087.45 18.8893 1065.23 3.08951 1028.94 3.08951H959.565V168H1005.98V112.207H1020.3C1028.94 112.207 1033.38 116.157 1035.11 126.032L1038.07 149.238C1039.55 157.631 1041.28 163.063 1044.74 168H1094.6ZM1208.13 129.488H1147.65V102.332H1200.23V67.2762H1147.65V41.6015H1207.89V3.08951H1101.98V168H1208.13V129.488ZM1222.45 168H1281.7C1327.37 168 1356.26 140.844 1356.26 85.5448C1356.26 29.9986 1327.62 3.08951 1281.7 3.08951H1222.45V168ZM1269.36 42.0953H1279.97C1297.75 42.0953 1307.62 54.6858 1307.62 85.5448C1307.62 116.157 1297.75 128.994 1279.73 128.994H1269.36V42.0953ZM76.296 377.469C109.13 377.469 131.102 358.46 136.533 328.094L93.8239 313.035C92.5895 326.366 87.8989 337.722 76.0491 337.722C62.9649 337.722 54.3243 324.144 54.3243 292.545C54.3243 260.945 62.9649 247.614 76.0491 247.614C87.6521 247.614 92.3426 258.476 93.577 271.808L136.533 256.501C131.102 226.383 108.883 207.621 76.296 207.621C32.5996 207.621 5.69057 238.233 5.69057 292.545C5.69057 346.857 32.5996 377.469 76.296 377.469ZM280.4 292.545C280.4 238.48 253.738 207.621 209.794 207.621C165.851 207.621 138.942 238.48 138.942 292.545C138.942 346.61 165.851 377.469 209.794 377.469C253.738 377.469 280.4 346.61 280.4 292.545ZM187.576 292.545C187.576 261.439 194.982 246.627 209.794 246.627C224.607 246.627 232.013 261.439 232.013 292.545C232.013 323.651 224.607 338.463 209.794 338.463C194.982 338.463 187.576 323.651 187.576 292.545ZM380 293.779H379.506L335.316 210.09H291.62V375H335.81V290.57H336.303L382.962 375H424.19V210.09H380V293.779ZM523.232 375V248.848H564.213V210.09H434.852V248.848H476.08V375H523.232ZM680.913 336.488H620.429V309.332H673.013V274.276H620.429V248.602H680.666V210.09H574.758V375H680.913V336.488ZM783.612 293.779H783.118L738.928 210.09H695.232V375H739.422V290.57H739.916L786.574 375H827.802V210.09H783.612V293.779ZM926.845 375V248.848H967.825V210.09H838.464V248.848H879.692V375H926.845Z" fill="black"/>
<rect x="1010.53" y="208.439" width="346.062" height="167.52" rx="36.7369" fill="#fbd024"/>
<path d="M1052.91 332.094V321.605L1080.73 294.327C1083.39 291.639 1085.61 289.252 1087.39 287.165C1089.16 285.077 1090.49 283.055 1091.38 281.098C1092.27 279.141 1092.71 277.054 1092.71 274.836C1092.71 272.305 1092.13 270.14 1090.99 268.34C1089.84 266.513 1088.26 265.104 1086.25 264.113C1084.24 263.121 1081.96 262.625 1079.4 262.625C1076.77 262.625 1074.46 263.173 1072.47 264.269C1070.49 265.339 1068.95 266.865 1067.86 268.848C1066.79 270.831 1066.25 273.193 1066.25 275.932H1052.44C1052.44 270.844 1053.6 266.422 1055.92 262.665C1058.24 258.907 1061.44 255.998 1065.51 253.937C1069.6 251.876 1074.3 250.845 1079.6 250.845C1084.97 250.845 1089.7 251.85 1093.77 253.859C1097.84 255.868 1100.99 258.62 1103.24 262.117C1105.51 265.613 1106.64 269.605 1106.64 274.093C1106.64 277.093 1106.07 280.042 1104.92 282.938C1103.77 285.834 1101.75 289.043 1098.85 292.566C1095.98 296.088 1091.95 300.354 1086.76 305.363L1072.94 319.414V319.962H1107.85V332.094H1052.91ZM1149.88 333.621C1143.44 333.621 1137.91 331.99 1133.29 328.728C1128.7 325.441 1125.16 320.705 1122.68 314.522C1120.23 308.312 1119 300.837 1119 292.096C1119.03 283.355 1120.27 275.919 1122.72 269.788C1125.2 263.63 1128.73 258.934 1133.33 255.698C1137.95 252.463 1143.46 250.845 1149.88 250.845C1156.3 250.845 1161.82 252.463 1166.44 255.698C1171.06 258.934 1174.59 263.63 1177.04 269.788C1179.52 275.945 1180.76 283.381 1180.76 292.096C1180.76 300.863 1179.52 308.351 1177.04 314.561C1174.59 320.744 1171.06 325.467 1166.44 328.728C1161.85 331.99 1156.33 333.621 1149.88 333.621ZM1149.88 321.371C1154.89 321.371 1158.84 318.905 1161.74 313.974C1164.66 309.016 1166.12 301.724 1166.12 292.096C1166.12 285.73 1165.46 280.381 1164.13 276.05C1162.8 271.718 1160.92 268.457 1158.49 266.265C1156.07 264.047 1153.2 262.939 1149.88 262.939C1144.9 262.939 1140.96 265.417 1138.06 270.375C1135.17 275.306 1133.71 282.546 1133.68 292.096C1133.65 298.488 1134.29 303.863 1135.6 308.22C1136.93 312.578 1138.81 315.865 1141.23 318.083C1143.66 320.275 1146.54 321.371 1149.88 321.371ZM1192.66 332.094V321.605L1220.49 294.327C1223.15 291.639 1225.37 289.252 1227.14 287.165C1228.92 285.077 1230.25 283.055 1231.13 281.098C1232.02 279.141 1232.47 277.054 1232.47 274.836C1232.47 272.305 1231.89 270.14 1230.74 268.34C1229.6 266.513 1228.02 265.104 1226.01 264.113C1224 263.121 1221.72 262.625 1219.16 262.625C1216.52 262.625 1214.21 263.173 1212.23 264.269C1210.25 265.339 1208.71 266.865 1207.61 268.848C1206.54 270.831 1206.01 273.193 1206.01 275.932H1192.19C1192.19 270.844 1193.35 266.422 1195.68 262.665C1198 258.907 1201.19 255.998 1205.26 253.937C1209.36 251.876 1214.06 250.845 1219.35 250.845C1224.73 250.845 1229.45 251.85 1233.52 253.859C1237.59 255.868 1240.75 258.62 1242.99 262.117C1245.26 265.613 1246.4 269.605 1246.4 274.093C1246.4 277.093 1245.82 280.042 1244.68 282.938C1243.53 285.834 1241.51 289.043 1238.61 292.566C1235.74 296.088 1231.71 300.354 1226.52 305.363L1212.7 319.414V319.962H1247.61V332.094H1192.66ZM1260.01 332.094V321.605L1287.84 294.327C1290.5 291.639 1292.72 289.252 1294.49 287.165C1296.27 285.077 1297.6 283.055 1298.48 281.098C1299.37 279.141 1299.81 277.054 1299.81 274.836C1299.81 272.305 1299.24 270.14 1298.09 268.34C1296.94 266.513 1295.37 265.104 1293.36 264.113C1291.35 263.121 1289.06 262.625 1286.51 262.625C1283.87 262.625 1281.56 263.173 1279.58 264.269C1277.6 265.339 1276.06 266.865 1274.96 268.848C1273.89 270.831 1273.36 273.193 1273.36 275.932H1259.54C1259.54 270.844 1260.7 266.422 1263.03 262.665C1265.35 258.907 1268.54 255.998 1272.61 253.937C1276.71 251.876 1281.41 250.845 1286.7 250.845C1292.08 250.845 1296.8 251.85 1300.87 253.859C1304.94 255.868 1308.1 258.62 1310.34 262.117C1312.61 265.613 1313.75 269.605 1313.75 274.093C1313.75 277.093 1313.17 280.042 1312.03 282.938C1310.88 285.834 1308.86 289.043 1305.96 292.566C1303.09 296.088 1299.06 300.354 1293.87 305.363L1280.05 319.414V319.962H1314.96V332.094H1260.01Z" fill="black"/>
</svg>
