<svg xmlns="http://www.w3.org/2000/svg" xmlns:xlink="http://www.w3.org/1999/xlink" viewBox="0 0 1263.23 327.78"><defs><style>.cls-1{fill:none;}.cls-2{clip-path:url(#clip-path);}.cls-3{fill:#fbd024;}</style><clipPath id="clip-path" transform="translate(0 0)"><rect class="cls-1" width="1263.23" height="327.78"/></clipPath></defs><g id="Layer_2" data-name="Layer 2"><g id="Layer_1-2" data-name="Layer 1"><g class="cls-2"><path class="cls-3" d="M1220.51,327.71c9.84.65,22.34-3.35,27.93-8.93,5.87-5.88,9.49-14,9.49-28.49V208.75c0-14-3.35-21.79-8.94-27.37-6.14-6.15-14-9.5-28.48-9.5h-277c-14.52,0-22.34,3.35-28.49,9.5-5.58,5.58-8.93,13.4-8.93,27.37v82.1c0,14,3.35,21.78,8.93,27.37,6.15,6.14,14,9.49,28.49,9.49Z" transform="translate(0 0)"/><path d="M855.24,325.34V207.69h38.22V171.54H772.81v36.15h38.45V325.34ZM723.31,249.59h-.46l-41.21-78.05H640.89v153.8H682.1V246.6h.46l43.52,78.74h38.45V171.54H723.31ZM630.2,289.42H573.79V264.1h49.05V231.4H573.79v-24H630V171.54H531.2v153.8h99ZM484.8,325.34V207.69H523V171.54H402.37v36.15h38.46V325.34ZM352.88,249.59h-.47L311.2,171.54H270.45v153.8h41.21V246.6h.46l43.52,78.74h38.45V171.54H352.88ZM175,248.44c0-29,6.91-42.83,20.73-42.83s20.72,13.82,20.72,42.83-6.91,42.82-20.72,42.82S175,277.45,175,248.44m86.58,0c0-50.43-24.87-79.21-65.85-79.21S129.61,198,129.61,248.44s25.09,79.2,66.08,79.2,65.85-28.78,65.85-79.2M70.46,327.64c30.62,0,51.11-17.73,56.18-46.05l-39.84-14c-1.15,12.43-5.52,23-16.57,23C58,290.57,50,277.91,50,248.44S58,206.53,70.23,206.53c10.82,0,15.19,10.14,16.34,22.57l40.07-14.28c-5.07-28.09-25.79-45.59-56.18-45.59-40.76,0-65.86,28.55-65.86,79.21s25.1,79.2,65.86,79.2" transform="translate(0 0)"/><path d="M1182.18,38.68h9.9c16.58,0,25.79,11.74,25.79,40.52,0,28.56-9.21,40.53-26,40.53h-9.67Zm-43.74,117.43h55.26c42.59,0,69.53-25.33,69.53-76.91,0-51.8-26.71-76.9-69.53-76.9h-55.26Zm-11.15-35.92h-56.41V94.86h49V62.17h-49v-24h56.18V2.3h-98.77V156.11h99Zm-105.74,35.92c-4.38-5.3-6.68-10.82-8.06-18.19l-4.84-27.63c-2.76-13.59-10.36-21.18-22.1-23.72v-.46c14.73-3,28.32-16.12,28.32-37.53C1014.87,17,994.15,2.3,960.3,2.3H895.6V156.11h43.29v-52h13.35c8.06,0,12.2,3.69,13.82,12.9l2.76,21.64c1.38,7.83,3,12.89,6.22,17.5ZM955,70.92H938.89V37.53H955c10.6,0,15,5.53,15,16.35,0,11.74-4.6,17-15,17M806.52,99.24V2.3h-44V99.47c0,40.52,24.18,58.94,60.1,58.94S882.73,140,882.73,99.47V2.3h-44V99.24c0,12.66-3.69,22.79-16.12,22.79-12.66,0-16.12-10.13-16.12-22.79m-89.75,56.87V38.45H755V2.3H634.34V38.45h38.45V156.11Zm-142.89,2.3c30.62,0,51.12-17.73,56.18-46l-39.83-14c-1.15,12.43-5.53,23-16.58,23-12.2,0-20.26-12.66-20.26-42.14s8.06-41.9,20.26-41.9c10.82,0,15.2,10.13,16.35,22.56l40.06-14.27C625,17.5,604.27,0,573.88,0,533.13,0,508,28.55,508,79.2s25.1,79.21,65.85,79.21M421.55,99.24V2.3h-44V99.47c0,40.52,24.17,58.94,60.09,58.94S497.76,140,497.76,99.47V2.3h-44V99.24c0,12.66-3.69,22.79-16.12,22.79-12.66,0-16.12-10.13-16.12-22.79m-46,56.87c-4.37-5.3-6.67-10.82-8.06-18.19l-4.83-27.63c-2.76-13.59-10.36-21.18-22.1-23.72v-.46c14.73-3,28.32-16.12,28.32-37.53C368.88,17,348.15,2.3,314.31,2.3h-64.7V156.11h43.28v-52h13.36c8.06,0,12.2,3.69,13.81,12.9l2.77,21.64c1.38,7.83,3,12.89,6.21,17.5ZM309,70.92H292.89V37.53H309c10.59,0,15,5.53,15,16.35,0,11.74-4.61,17-15,17m-105.8,85.19V38.45h38.23V2.3H120.79V38.45h38.45V156.11ZM117,110.29c0-54.11-69.54-44.67-69.54-65.62,0-6.91,5.3-11.28,13.12-11.28,8.29,0,15.66,6,16.81,16.8l38-9.67C111,14.74,91.87,0,60.55,0,28.78,0,3.68,18.65,3.68,48.81c0,52.73,69.08,42.83,69.08,64.7,0,7.37-6,11.28-14.28,11.28-10.59,0-19.8-7.36-21.18-20L0,118.58c5.07,24.4,27.17,39.83,58.48,39.83C90,158.41,117,141.14,117,110.29" transform="translate(0 0)"/><path d="M1216.53,291V278.06H1179.3v-.59l14.73-15A164.37,164.37,0,0,0,1207,248.84a40.48,40.48,0,0,0,6.45-10.27,25.44,25.44,0,0,0,1.84-9.43,23,23,0,0,0-3.62-12.77,24.7,24.7,0,0,0-10.12-8.8,33.6,33.6,0,0,0-15.1-3.22,32.87,32.87,0,0,0-15,3.3,25,25,0,0,0-10.24,9.31,26.3,26.3,0,0,0-3.72,14.14h14.73a15.46,15.46,0,0,1,1.74-7.55,12,12,0,0,1,4.9-4.9,15.12,15.12,0,0,1,7.39-1.74,16.25,16.25,0,0,1,7.3,1.59,12.23,12.23,0,0,1,5,4.49,12.67,12.67,0,0,1,1.84,6.95,16,16,0,0,1-1.42,6.67,28.06,28.06,0,0,1-4.26,6.47q-2.84,3.34-7.09,7.64l-29.68,29.09V291Zm-68.41,0V278.06h-37.23v-.59l14.74-15a165.7,165.7,0,0,0,12.91-13.65,39.92,39.92,0,0,0,6.45-10.27,25.24,25.24,0,0,0,1.84-9.43,23.1,23.1,0,0,0-3.61-12.77,24.76,24.76,0,0,0-10.12-8.8,33.64,33.64,0,0,0-15.11-3.22,32.79,32.79,0,0,0-15,3.3,25,25,0,0,0-10.25,9.31A26.3,26.3,0,0,0,1089,231.1h14.74a15.45,15.45,0,0,1,1.73-7.55,12,12,0,0,1,4.9-4.9,15.14,15.14,0,0,1,7.39-1.74,16.22,16.22,0,0,1,7.3,1.59,12.17,12.17,0,0,1,5.05,4.49,12.67,12.67,0,0,1,1.84,6.95,15.88,15.88,0,0,1-1.42,6.67,27.42,27.42,0,0,1-4.26,6.47q-2.83,3.34-7.09,7.64l-29.67,29.09V291ZM1038.3,276q-3.88-3.52-6-10.49a59.81,59.81,0,0,1-2.07-17.2q0-15.27,4.68-23.18t12.6-7.91a13.17,13.17,0,0,1,9.18,3.52q3.88,3.54,6,10.46a59.34,59.34,0,0,1,2.12,17.11q0,15.41-4.65,23.31t-12.67,7.91a13.26,13.26,0,0,1-9.22-3.53m26.9,11.38q7.36-5.22,11.31-15.13t3.94-23.94q0-13.93-3.94-23.79t-11.33-15a32.64,32.64,0,0,0-35.29,0q-7.37,5.17-11.31,15t-4,23.81q0,14,3.95,23.89t11.31,15.15a32.51,32.51,0,0,0,35.35,0M1006.59,291V278.06H969.36v-.59l14.73-15A164.37,164.37,0,0,0,997,248.84a40.19,40.19,0,0,0,6.45-10.27,25.44,25.44,0,0,0,1.84-9.43,23.1,23.1,0,0,0-3.61-12.77,24.72,24.72,0,0,0-10.13-8.8,33.6,33.6,0,0,0-15.1-3.22,32.87,32.87,0,0,0-15,3.3A25,25,0,0,0,951.21,217a26.3,26.3,0,0,0-3.72,14.14h14.73a15.46,15.46,0,0,1,1.74-7.55,12,12,0,0,1,4.9-4.9,15.12,15.12,0,0,1,7.39-1.74,16.25,16.25,0,0,1,7.3,1.59A12.23,12.23,0,0,1,988.6,223a12.67,12.67,0,0,1,1.84,6.95,16,16,0,0,1-1.42,6.67,28.06,28.06,0,0,1-4.26,6.47q-2.84,3.34-7.09,7.64L948,279.81V291Z" transform="translate(0 0)"/></g></g></g></svg>
