<svg width="24" height="24" viewBox="0 0 24 24" fill="none" xmlns="http://www.w3.org/2000/svg">
<path d="M2 5.75C1.30964 5.75 0.75 6.30964 0.75 7C0.75 7.69036 1.30964 8.25 2 8.25V5.75ZM22 8.25C22.6904 8.25 23.25 7.69036 23.25 7C23.25 6.30964 22.6904 5.75 22 5.75V8.25ZM2 8.25H22V5.75H2V8.25Z" fill="black"/>
<path d="M2 15.75C1.30964 15.75 0.75 16.3096 0.75 17C0.75 17.6904 1.30964 18.25 2 18.25V15.75ZM22 18.25C22.6904 18.25 23.25 17.6904 23.25 17C23.25 16.3096 22.6904 15.75 22 15.75V18.25ZM2 18.25H22V15.75H2V18.25Z" fill="black"/>
</svg>
