<svg width="1200" height="628" fill="none" xmlns="http://www.w3.org/2000/svg"><g clip-path="url(#a)"><path fill="#FEF7DA" d="M0 0h1200v628H0z"/><g clip-path="url(#b)"><path d="M188.944 587.991c1.201.08 2.726-.408 3.408-1.089.717-.718 1.158-1.709 1.158-3.477v-9.951c0-1.708-.408-2.659-1.091-3.34-.749-.75-1.708-1.159-3.475-1.159h-33.803c-1.772 0-2.727.409-3.477 1.159-.681.681-1.09 1.636-1.09 3.34v10.019c0 1.709.409 2.658 1.09 3.34.75.75 1.708 1.158 3.477 1.158h33.803Z" fill="#FBD024"/><path d="M144.369 587.702v-14.357h4.664v-4.411H134.31v4.411h4.692v14.357h5.367Zm-16.1-9.244h-.056l-5.029-9.524h-4.973v18.768h5.029v-9.608h.056l5.311 9.608h4.692v-18.768h-5.03v9.524Zm-11.363 4.861h-6.883v-3.09h5.985v-3.99h-5.985v-2.929h6.859v-4.376h-12.057v18.768h12.081v-4.383Zm-17.743 4.383v-14.357h4.661v-4.411h-14.72v4.411h4.693v14.357h5.366Zm-16.099-9.244h-.057l-5.03-9.524h-4.972v18.768h5.029v-9.608h.056l5.311 9.608h4.692v-18.768h-5.029v9.524Zm-21.707-.14c0-3.539.843-5.227 2.53-5.227 1.686 0 2.528 1.687 2.528 5.227s-.843 5.226-2.528 5.226c-1.686 0-2.53-1.686-2.53-5.226Zm10.566 0c0-6.154-3.035-9.666-8.036-9.666-5.001 0-8.07 3.511-8.07 9.666s3.063 9.665 8.065 9.665c5.002 0 8.036-3.512 8.036-9.665h.005ZM48.6 587.983c3.736 0 6.237-2.164 6.855-5.62l-4.861-1.708c-.14 1.517-.674 2.807-2.023 2.807-1.492-.003-2.468-1.548-2.468-5.144s.976-5.114 2.468-5.114c1.32 0 1.854 1.237 1.995 2.754l4.89-1.743c-.62-3.428-3.148-5.563-6.856-5.563-4.974 0-8.038 3.484-8.038 9.666s3.064 9.665 8.038 9.665ZM184.267 552.72h1.208c2.023 0 3.147 1.433 3.147 4.945 0 3.485-1.124 4.946-3.172 4.946h-1.181l-.002-9.891Zm-5.338 14.331h6.744c5.197 0 8.485-3.092 8.485-9.386 0-6.321-3.26-9.384-8.485-9.384h-6.744v18.77Zm-1.36-4.384h-6.884v-3.091h5.979v-3.989h-5.979v-2.929h6.856v-4.377h-12.054v18.77h12.082v-4.384Zm-12.904 4.384c-.535-.647-.815-1.321-.984-2.22l-.59-3.372c-.337-1.658-1.265-2.585-2.697-2.895v-.056c1.797-.366 3.456-1.967 3.456-4.58 0-3.853-2.529-5.647-6.66-5.647h-7.895v18.77h5.283v-6.346h1.629c.983 0 1.489.45 1.686 1.574l.337 2.641c.168.955.366 1.573.759 2.135l5.676-.004Zm-8.121-10.396h-1.966v-4.075h1.966c1.293 0 1.83.675 1.83 1.995 0 1.433-.561 2.075-1.83 2.075v.005Zm-18.12 3.456v-11.83h-5.369v11.858c0 4.944 2.95 7.192 7.334 7.192 4.383 0 7.335-2.246 7.335-7.192v-11.858h-5.369v11.83c0 1.545-.451 2.781-1.967 2.781-1.545 0-1.968-1.236-1.968-2.781h.004Zm-10.956 6.94v-14.359h4.669v-4.411h-14.725v4.411h4.693v14.359h5.363Zm-17.437.28c3.736 0 6.238-2.163 6.855-5.613l-4.86-1.709c-.14 1.517-.675 2.807-2.023 2.807-1.489 0-2.473-1.545-2.473-5.142 0-3.598.984-5.114 2.473-5.114 1.32 0 1.854 1.237 1.995 2.753l4.888-1.741c-.613-3.436-3.143-5.572-6.852-5.572-4.973 0-8.039 3.484-8.039 9.665 0 6.181 3.063 9.666 8.036 9.666Zm-18.586-7.22v-11.83h-5.37v11.858c0 4.944 2.95 7.192 7.334 7.192 4.383 0 7.336-2.246 7.336-7.192v-11.858h-5.37v11.83c0 1.545-.45 2.781-1.966 2.781-1.545 0-1.968-1.236-1.968-2.781h.004Zm-5.617 6.94c-.534-.647-.814-1.321-.984-2.22l-.59-3.372c-.336-1.658-1.263-2.585-2.696-2.895v-.056c1.797-.366 3.456-1.967 3.456-4.58.004-3.853-2.526-5.647-6.656-5.647h-7.895v18.77h5.281v-6.346h1.63c.984 0 1.49.45 1.686 1.574l.338 2.641c.168.955.366 1.573.758 2.135l5.672-.004Zm-8.118-10.396h-1.966v-4.075h1.966c1.293 0 1.83.675 1.83 1.995 0 1.433-.562 2.075-1.83 2.075v.005ZM64.8 567.046v-14.354h4.664v-4.411H54.742v4.411h4.693v14.359l5.364-.005Zm-10.52-5.587c0-6.603-8.486-5.451-8.486-8.008 0-.843.646-1.376 1.6-1.376 1.012 0 1.912.732 2.052 2.05l4.637-1.18c-.535-3.146-2.87-4.945-6.692-4.945-3.877 0-6.94 2.276-6.94 5.956 0 6.435 8.43 5.227 8.43 7.896 0 .899-.732 1.377-1.743 1.377-1.292 0-2.416-.899-2.584-2.441l-4.552 1.683c.619 2.977 3.316 4.86 7.136 4.86 3.847 0 7.142-2.107 7.142-5.872ZM188.46 583.512v-1.579h-4.544v-.072l1.798-1.831a20.213 20.213 0 0 0 1.583-1.663 4.94 4.94 0 0 0 .787-1.254c.147-.365.223-.756.224-1.15a2.81 2.81 0 0 0-.441-1.559 3.027 3.027 0 0 0-1.235-1.074 4.119 4.119 0 0 0-1.843-.393 4.017 4.017 0 0 0-1.831.403 3.056 3.056 0 0 0-1.249 1.136 3.203 3.203 0 0 0-.454 1.726h1.797a1.89 1.89 0 0 1 .213-.921 1.46 1.46 0 0 1 .598-.598c.277-.147.588-.22.902-.213.308-.005.613.061.89.194.251.122.462.312.611.548.155.255.233.55.224.848.001.281-.058.559-.173.814a3.43 3.43 0 0 1-.52.79c-.231.272-.52.582-.865.932l-3.622 3.55v1.366h7.15Zm-8.349 0v-1.579h-4.543v-.072l1.799-1.831a20.155 20.155 0 0 0 1.575-1.666c.325-.375.59-.798.787-1.253.148-.366.225-.756.225-1.151a2.81 2.81 0 0 0-.441-1.558 3.02 3.02 0 0 0-1.235-1.074 4.103 4.103 0 0 0-1.843-.393 4 4 0 0 0-1.831.403 3.047 3.047 0 0 0-1.251 1.136 3.21 3.21 0 0 0-.456 1.728h1.799c-.009-.32.063-.637.211-.921a1.46 1.46 0 0 1 .598-.598c.277-.147.588-.22.901-.213.308-.005.614.061.891.194.253.121.467.311.617.548.155.255.233.55.224.848.002.281-.057.559-.173.814-.135.287-.31.553-.52.79-.23.272-.519.582-.865.932l-3.621 3.55v1.366h7.152Zm-13.401-1.831c-.316-.286-.56-.713-.732-1.28a7.292 7.292 0 0 1-.253-2.099c0-1.242.19-2.185.571-2.829.381-.643.893-.965 1.538-.965.415-.007.816.147 1.12.43.316.288.56.713.732 1.276.188.68.275 1.383.259 2.088 0 1.254-.189 2.202-.568 2.845-.378.642-.893.964-1.546.965a1.618 1.618 0 0 1-1.125-.431h.004Zm3.279 1.389c.599-.425 1.059-1.04 1.38-1.846.321-.807.482-1.781.481-2.922 0-1.133-.161-2.101-.481-2.903-.321-.802-.781-1.412-1.383-1.831a3.986 3.986 0 0 0-4.306 0c-.6.421-1.06 1.031-1.38 1.831-.321.8-.484 1.768-.489 2.906 0 1.138.161 2.11.482 2.915.322.804.782 1.421 1.381 1.849a3.966 3.966 0 0 0 4.314 0l.001.001Zm-7.149.442v-1.579h-4.543v-.072l1.797-1.831a19.963 19.963 0 0 0 1.576-1.663c.324-.376.589-.798.787-1.254.147-.365.223-.756.224-1.15a2.82 2.82 0 0 0-.44-1.559 3.024 3.024 0 0 0-1.236-1.074 4.119 4.119 0 0 0-1.843-.393 4.017 4.017 0 0 0-1.831.403 3.055 3.055 0 0 0-1.249 1.141 3.212 3.212 0 0 0-.454 1.726h1.797c-.008-.32.065-.637.213-.922.136-.253.344-.461.598-.598.277-.146.588-.219.902-.212.308-.005.613.061.89.194.253.12.466.309.617.544.155.256.233.55.224.849.002.28-.057.558-.173.813a3.43 3.43 0 0 1-.52.79 16.79 16.79 0 0 1-.865.932l-3.621 3.549v1.366h7.15Z" fill="#121923"/></g><g clip-path="url(#c)" fill="#FBD024"><rect x="1107.12" y="29" width="140" height="139" rx="12" transform="rotate(45.538 1107.12 29)"/><rect x="1002.21" y="131.963" width="140" height="139" rx="12" transform="rotate(45.538 1002.21 131.963)"/><path d="m1041.74 93.166 30.644 31.225-72.902 71.544-30.644-31.225z"/></g><g clip-path="url(#d)" fill="#FBD024"><rect x="898" y="324" width="286" height="70" rx="16"/><rect x="898" y="394" width="286" height="70" rx="16"/></g><path d="M1041 612c74.85 0 136.27-56.301 142.48-128.006.57-6.603-4.85-11.994-11.48-11.994H910c-6.627 0-12.055 5.392-11.483 11.994C904.732 555.699 966.15 612 1041 612Z" fill="#FBD024"/><g clip-path="url(#e)" fill="#FBD024"><rect x="427" y="472" width="169" height="66" rx="12"/><rect x="427" y="546" width="169" height="66" rx="12"/><path d="M427 516.844h52.813v50H427z"/></g><g clip-path="url(#f)" fill="#FBD024"><rect x="604" y="389" width="139" height="223" rx="12"/><rect x="751" y="389" width="139" height="223" rx="12"/><path d="M820.734 389v69.688H673.265V389zM820.734 542.312V612H673.265v-69.688z"/></g></g><defs><clipPath id="a"><path fill="#fff" d="M0 0h1200v628H0z"/></clipPath><clipPath id="b"><path fill="#fff" transform="translate(40 548)" d="M0 0h154.156v40H0z"/></clipPath><clipPath id="c"><path fill="#fff" transform="rotate(45.539 519.014 1333.348)" d="M0 0h140v286H0z"/></clipPath><clipPath id="d"><path fill="#fff" transform="translate(898 324)" d="M0 0h286v140H0z"/></clipPath><clipPath id="e"><path fill="#fff" transform="translate(427 472)" d="M0 0h169v140H0z"/></clipPath><clipPath id="f"><path fill="#fff" transform="translate(604 389)" d="M0 0h286v223H0z"/></clipPath></defs></svg>