<svg width="145" height="30" viewBox="0 0 145 30" fill="none" xmlns="http://www.w3.org/2000/svg">
<path d="M134.124 18.3281V28.8012H128.31V18.3281" fill="#515E72"/>
<path d="M128.31 18.3281L138.149 1.20117H144.325L134.124 18.3281H128.31Z" fill="#121923"/>
<path d="M128.31 18.3281L118.197 1.20117H124.559L131.41 12.9378L128.31 18.3281Z" fill="#515E72"/>
<path d="M107.766 10.8433V28.8013H101.863V13.9092L107.766 10.8433Z" fill="#515E72"/>
<path d="M101.863 13.8935L116.827 6.23568L114.299 1.95996L101.863 8.03724V13.8935Z" fill="#95A3B9"/>
<path d="M101.863 6.23595H92.8457V1.20117H113.849L116.827 6.23595H107.766H101.863Z" fill="#121923"/>
<path d="M89.4616 1.20117H83.6031V28.806H89.4616V1.20117Z" fill="#121923"/>
<path d="M59.7192 9.42112V28.8012H54.0905V1.20117L59.7192 9.42112Z" fill="#515E72"/>
<path d="M60.5897 1.20117L72.9864 20.0576V28.8012L54.0905 1.20117H60.5897Z" fill="#121923"/>
<path d="M72.9864 18.6403V1.20117H78.6151V28.8012H72.9864V18.6403Z" fill="#515E72"/>
<path d="M28.7737 29.2526L42.5669 22.0407L40.8665 17.6362L31.7856 21.8709L28.7737 29.2526Z" fill="#95A3B9"/>
<path d="M37.3023 8.34979L28.7737 29.2528L24.3871 25.4767L34.549 1.20117L37.3023 8.34979Z" fill="#515E72"/>
<path d="M34.5491 1.20117H40.3636L51.1172 28.8012H45.1658L34.5491 1.20117Z" fill="#121923"/>
<path d="M2.56196 4.38623C2.56196 8.22957 4.97775 10.5164 9.8142 11.7222L14.9392 12.8896C19.5164 13.9225 22.3039 16.488 22.3039 20.6676C22.3395 22.4884 21.7369 24.266 20.5972 25.7024C20.5972 21.5323 18.4015 19.2792 13.1053 17.9244L8.07327 16.8002C4.04371 15.897 0.933513 13.788 0.933513 9.24806C0.912318 7.49485 1.48519 5.7845 2.56196 4.38623Z" fill="#121923"/>
<path d="M17.4479 19.6444C19.6338 21.0184 20.5923 22.94 20.5923 25.6976C18.7829 27.9748 15.6043 29.2527 11.8681 29.2527C5.57927 29.2527 1.17805 26.2117 0.200005 20.9271H6.23946C7.017 23.3532 9.0758 24.4774 11.8241 24.4774C15.1788 24.4774 17.4088 22.719 17.4528 19.6348" fill="#515E72"/>
<path d="M5.70151 10.084C4.70333 9.50124 3.88439 8.66381 3.33163 7.66064C2.77887 6.65746 2.51291 5.52598 2.56197 4.38627C4.30779 2.12831 7.34463 0.749512 11.0465 0.749512C17.4528 0.749512 21.1596 4.074 22.074 8.75327H16.2644C15.6238 6.90847 14.0198 5.47202 11.0955 5.47202C7.97058 5.47202 5.83844 7.25917 5.71618 10.084" fill="#515E72"/>
</svg>
