<svg width="140" height="28" viewBox="0 0 140 28" fill="none" xmlns="http://www.w3.org/2000/svg">
<path opacity="0.5" d="M103.792 9.91553V27.5565H98.0964V12.9273L103.792 9.91553Z" fill="black"/>
<path d="M27.5713 27.9997L40.8805 20.9151L39.2398 16.5884L30.4775 20.7483L27.5713 27.9997Z" fill="black"/>
<path d="M98.0964 12.9124L112.536 5.38969L110.096 1.18945L98.0964 7.15945V12.9124Z" fill="black"/>
<path opacity="0.5" d="M57.431 8.51868V27.5566H51.9998V0.443848L57.431 8.51868Z" fill="black"/>
<path opacity="0.5" d="M35.8006 7.46627L27.5713 28.0002L23.3386 24.2908L33.144 0.443848L35.8006 7.46627Z" fill="black"/>
<path d="M33.144 0.443848H38.7545L49.1309 27.5566H43.3883L33.144 0.443848Z" fill="black"/>
<path d="M58.2709 0.443848L70.2327 18.9674V27.5566L51.9998 0.443848H58.2709Z" fill="black"/>
<path d="M86.1298 0.443848H80.4768V27.5613H86.1298V0.443848Z" fill="black"/>
<path d="M98.0965 5.38974H89.3953V0.443848H109.662L112.536 5.38974H103.792H98.0965Z" fill="black"/>
<path d="M129.225 17.2681V27.5563H123.615V17.2681" fill="black"/>
<path d="M123.615 17.2684L133.109 0.443848H139.069L129.225 17.2684H123.615Z" fill="black"/>
<path opacity="0.7" d="M123.615 17.2684L113.857 0.443848H119.996L126.607 11.9733L123.615 17.2684Z" fill="black"/>
<path d="M2.27914 3.57275C2.27914 7.34825 4.61016 9.59467 9.27693 10.7792L14.2221 11.926C18.6388 12.9407 21.3284 15.4608 21.3284 19.5667C21.3628 21.3554 20.7813 23.1016 19.6816 24.5126C19.6816 20.4162 17.5629 18.2028 12.4526 16.8719L7.59708 15.7676C3.7089 14.8804 0.707823 12.8086 0.707823 8.34875C0.687372 6.6265 1.24015 4.94634 2.27914 3.57275Z" fill="black"/>
<path opacity="0.5" d="M70.2327 17.5752V0.443848H75.6639V27.5566H70.2327V17.5752Z" fill="black"/>
<path opacity="0.5" d="M16.6428 18.5612C18.752 19.9109 19.6769 21.7987 19.6769 24.5076C17.9309 26.7446 14.8638 27.9999 11.2587 27.9999C5.19054 27.9999 0.943734 25.0126 0 19.8213H5.82756C6.57783 22.2045 8.56439 23.3089 11.2163 23.3089C14.4533 23.3089 16.605 21.5816 16.6475 18.5518" fill="black"/>
<path opacity="0.5" d="M5.30837 9.16973C4.34521 8.59723 3.555 7.77459 3.02164 6.78912C2.48827 5.80366 2.23164 4.69214 2.27898 3.57256C3.96355 1.35446 6.89384 0 10.4659 0C16.6473 0 20.2241 3.2658 21.1065 7.86247H15.5007C14.8826 6.05023 13.3348 4.63914 10.5131 4.63914C7.49783 4.63914 5.44049 6.39474 5.32252 9.16973" fill="black"/>
</svg>
