<svg width="352" height="100" fill="none" xmlns="http://www.w3.org/2000/svg"><path d="M311 58v23h-13V58" fill="#AFBACA"/><path d="m298 58 22-38h13l-22 38h-13Z" fill="#fff"/><path d="m298 58-21-38h13l15 26-7 12ZM254 41v40h-13V48l13-7Z" fill="#AFBACA"/><path d="m241 48 33-17-6-9-27 13v13Z" fill="#7B8CA8"/><path d="M241 31h-20V20h46l7 11h-33ZM214 20h-13v61h13V20Z" fill="#fff"/><path d="M149 38v43h-12V20l12 18Z" fill="#AFBACA"/><path d="m151 20 27 41v20l-41-61h14Z" fill="#fff"/><path d="M178 58V20h12v61h-12V58Z" fill="#AFBACA"/><path d="m82 82 30-16-4-10-19 9-7 17Z" fill="#7B8CA8"/><path d="M101 36 82 82l-9-9 22-53 6 16Z" fill="#AFBACA"/><path d="M95 20h12l24 61h-13L95 20ZM25 27c0 8 5 13 16 16l11 3c10 2 16 8 16 17 0 4-1 8-4 11 0-9-4-14-16-17l-11-3c-9-2-15-6-15-16 0-4 1-8 3-11Z" fill="#fff"/><path d="M57 61c5 3 7 7 7 13-4 5-11 8-19 8-13 0-23-7-25-19h13c2 6 6 8 12 8 8 0 12-4 13-10M32 40a14 14 0 0 1-7-13c4-5 11-8 19-8 14 0 22 7 24 18H55c-1-4-5-8-11-8-7 0-12 4-12 11" fill="#AFBACA"/></svg>