<svg width="352" height="100" viewBox="0 0 352 100" fill="none" xmlns="http://www.w3.org/2000/svg">
<path d="M311.14 57.6545V80.6792H298.499V57.6545" fill="#AFBACA"/>
<path d="M298.499 57.6545L319.889 20.0017H333.316L311.14 57.6545H298.499Z" fill="white"/>
<path d="M298.499 57.6545L276.515 20.0017H290.345L305.239 45.8042L298.499 57.6545Z" fill="#AFBACA"/>
<path d="M253.839 41.1992V80.6792H241.007V47.9395L253.839 41.1992Z" fill="#AFBACA"/>
<path d="M241.007 47.906L273.538 31.0705L268.042 21.6705L241.007 35.0311V47.906Z" fill="#7B8CA8"/>
<path d="M241.007 31.0705H221.404V20.0017H267.064L273.538 31.0705H253.839H241.007Z" fill="white"/>
<path d="M214.047 20.0017H201.311V80.6898H214.047V20.0017Z" fill="white"/>
<path d="M149.39 38.073V80.6793H137.153V20.0017L149.39 38.073Z" fill="#AFBACA"/>
<path d="M151.282 20.0017L178.231 61.4568V80.6793L137.153 20.0017H151.282Z" fill="white"/>
<path d="M178.231 58.341V20.0017H190.468V80.6793H178.231V58.341Z" fill="#AFBACA"/>
<path d="M82.1168 81.6721L112.102 65.8169L108.405 56.1339L88.6643 65.4437L82.1168 81.6721Z" fill="#7B8CA8"/>
<path d="M100.657 35.7177L82.1167 81.6721L72.5807 73.3705L94.6718 20.0017L100.657 35.7177Z" fill="#AFBACA"/>
<path d="M94.6719 20.0017H107.312L130.69 80.6793H117.752L94.6719 20.0017Z" fill="white"/>
<path d="M25.1347 27.0043C25.1347 35.4537 30.3864 40.4811 40.9004 43.1321L52.0417 45.6987C61.9923 47.9694 68.0519 53.6094 68.0519 62.7982C68.1293 66.8013 66.8194 70.7092 64.3417 73.867C64.3417 64.6993 59.5684 59.7459 48.0551 56.7674L37.1158 54.296C28.3559 52.3103 21.5946 47.6737 21.5946 37.6928C21.5485 33.8385 22.7939 30.0783 25.1347 27.0043Z" fill="white"/>
<path d="M57.4954 60.5485C62.2475 63.5692 64.3311 67.7939 64.3311 73.8564C60.3977 78.8627 53.4875 81.6721 45.3655 81.6721C31.6941 81.6721 22.1262 74.9865 20 63.3685H33.1292C34.8196 68.7022 39.2952 71.1737 45.2698 71.1737C52.5626 71.1737 57.4104 67.3081 57.506 60.5274" fill="#AFBACA"/>
<path d="M31.9598 39.5306C29.7898 38.2493 28.0095 36.4083 26.8079 34.2028C25.6062 31.9974 25.028 29.5098 25.1347 27.0043C28.93 22.0402 35.5318 19.009 43.5794 19.009C57.506 19.009 65.5643 26.3177 67.5523 36.6049H54.9227C53.53 32.5492 50.0431 29.3912 43.6858 29.3912C36.8926 29.3912 32.2575 33.3202 31.9917 39.5306" fill="#AFBACA"/>
</svg>
