<svg viewBox="0 0 1728 1818" fill="none" xmlns="http://www.w3.org/2000/svg">
<path d="M74.8516 1847.97V1781.1C74.8516 1699.19 141.253 1632.79 223.164 1632.79V1632.79C305.075 1632.79 371.477 1566.39 371.477 1484.48V1272.01M371.477 1272.01L330.977 1319.37M371.477 1272.01L411.977 1319.37" stroke="#F9B1AB" stroke-width="2" stroke-linecap="round" stroke-linejoin="round" stroke-dasharray="4 8"/>
<path d="M1386.95 241.492L1427.45 200.992M1386.95 241.492L1427.45 281.992M1386.95 241.492L1520.45 241.492C1575.67 241.492 1620.45 196.72 1620.45 141.492L1620.45 -92.6333" stroke="#F9B1AB" stroke-width="2" stroke-linecap="round" stroke-linejoin="round" stroke-dasharray="4 8"/>
<circle cx="-0.000244141" cy="124.254" r="600.691" stroke="#F9B1AB" stroke-width="2" stroke-dasharray="4 8"/>
<circle cx="1893.69" cy="1281.69" r="600.691" stroke="#F9B1AB" stroke-width="2" stroke-dasharray="4 8"/>
<path d="M1091.87 1061.91L917.047 1061.55M1091.87 1061.91L1092.23 1236.73M1091.87 1061.91L495.117 1658.66" stroke="#F9B1AB" stroke-width="2" stroke-linecap="round" stroke-linejoin="round" stroke-dasharray="4 8"/>
</svg>
