<svg width="1200" height="630" viewBox="0 0 1200 630" fill="none" xmlns="http://www.w3.org/2000/svg">
<rect width="1200" height="630" fill="#FDEFB6"/>
<g clip-path="url(#clip0_1095_9581)">
<rect x="16.0001" y="16" width="378.667" height="291" rx="32" fill="#FFFBD2"/>
<rect x="16" y="323" width="378.667" height="291" rx="32" fill="#FFFBD2"/>
<rect width="118.333" height="186.875" transform="translate(16.0001 221.562)" fill="#FFFBD2"/>
</g>
<path d="M410.667 32C410.667 23.1635 417.83 16 426.667 16H773.333C782.17 16 789.333 23.1634 789.333 32L789.333 598C789.333 606.837 782.17 614 773.333 614H426.666C417.83 614 410.667 606.837 410.667 598L410.667 32Z" fill="#FFFBD2"/>
<g clip-path="url(#clip1_1095_9581)">
<rect x="805.333" y="16" width="378.667" height="299" rx="32" fill="#FFFBD2"/>
<rect x="805.333" y="315" width="378.667" height="299" rx="32" fill="#FFFBD2"/>
</g>
<g clip-path="url(#clip2_1095_9581)">
<path d="M891.217 395.965C896.08 396.286 902.258 394.31 905.021 391.552C907.922 388.646 909.711 384.632 909.711 377.471V337.171C909.711 330.252 908.056 326.402 905.293 323.644C902.258 320.604 898.374 318.949 891.217 318.949H754.314C747.138 318.949 743.273 320.604 740.234 323.644C737.476 326.402 735.82 330.267 735.82 337.171V377.748C735.82 384.667 737.476 388.512 740.234 391.275C743.273 394.31 747.153 395.965 754.314 395.965H891.217Z" fill="#FBD024"/>
<path d="M710.688 394.794V336.647H729.578V318.781H669.949V336.647H688.952V394.794H710.688ZM645.484 357.356H645.257L624.889 318.781H604.749V394.794H625.117V355.878H625.344L646.853 394.794H665.856V318.781H645.484V357.356ZM599.466 377.041H571.586V364.527H595.828V348.366H571.586V336.504H599.367V318.781H550.537V394.794H599.466V377.041ZM527.604 394.794V336.647H546.484V318.781H486.865V336.647H505.873V394.794H527.604ZM462.405 357.356H462.173L441.805 318.781H421.665V394.794H442.033V355.878H442.26L463.769 394.794H482.772V318.781H462.405V357.356ZM374.491 356.787C374.491 342.455 377.906 335.619 384.736 335.619C391.566 335.619 394.977 342.45 394.977 356.787C394.977 371.125 391.561 377.951 384.736 377.951C377.911 377.951 374.491 371.125 374.491 356.787ZM417.281 356.787C417.281 331.863 404.99 317.639 384.736 317.639C364.482 317.639 352.057 331.858 352.057 356.787C352.057 381.717 364.458 395.931 384.716 395.931C404.975 395.931 417.262 381.707 417.262 356.787H417.281ZM322.823 395.931C337.957 395.931 348.084 387.168 350.59 373.171L330.899 366.252C330.331 372.395 328.171 377.619 322.71 377.619C316.665 377.61 312.711 371.353 312.711 356.787C312.711 342.222 316.665 336.074 322.71 336.074C328.057 336.074 330.217 341.086 330.786 347.229L350.59 340.171C348.084 326.288 337.843 317.639 322.823 317.639C302.678 317.639 290.273 331.75 290.273 356.787C290.273 381.825 302.678 395.931 322.823 395.931Z" fill="black"/>
<path d="M872.273 253.117H877.166C885.36 253.117 889.912 258.919 889.912 273.143C889.912 287.259 885.36 293.175 877.062 293.175H872.283L872.273 253.117ZM850.655 311.155H877.967C899.016 311.155 912.331 298.636 912.331 273.143C912.331 247.542 899.13 235.137 877.967 235.137H850.655V311.155ZM845.145 293.402H817.265V280.883H841.482V264.727H817.265V252.865H845.031V235.137H796.215V311.155H845.145V293.402ZM792.884 311.155C790.719 308.535 789.583 305.807 788.901 302.165L786.509 288.509C785.145 281.792 781.388 278.041 775.586 276.786V276.558C782.866 275.076 789.583 268.591 789.583 258.01C789.583 242.402 779.342 235.137 762.612 235.137H730.635V311.155H752.031V285.455H758.629C762.612 285.455 764.659 287.278 765.459 291.83L766.823 302.526C767.505 306.395 768.306 308.896 769.897 311.175L792.884 311.155ZM759.993 269.051H752.031V252.549H759.993C765.232 252.549 767.406 255.282 767.406 260.629C767.406 266.432 765.133 269.031 759.993 269.031V269.051ZM686.609 283.048V235.137H664.863V283.161C664.863 303.188 676.813 312.292 694.566 312.292C712.319 312.292 724.275 303.193 724.275 283.161V235.137H702.528V283.048C702.528 289.305 700.705 294.311 694.561 294.311C688.304 294.311 686.594 289.305 686.594 283.048H686.609ZM642.237 311.155V253.003H661.146V235.137H601.512V253.003H620.515V311.155H642.237ZM571.616 312.292C586.749 312.292 596.881 303.529 599.382 289.557L579.696 282.638C579.128 288.781 576.963 294.005 571.502 294.005C565.472 294.005 561.489 287.748 561.489 273.178C561.489 258.608 565.472 252.47 571.502 252.47C576.85 252.47 579.014 257.476 579.583 263.619L599.382 256.567C596.896 242.649 586.65 234 571.63 234C551.49 234 539.07 248.11 539.07 273.143C539.07 298.176 551.476 312.292 571.616 312.292ZM496.344 283.048V235.137H474.598V283.161C474.598 303.188 486.543 312.292 504.296 312.292C522.049 312.292 534.009 303.193 534.009 283.161V235.137H512.263V283.048C512.263 289.305 510.439 294.311 504.296 294.311C498.039 294.311 496.329 289.305 496.329 283.048H496.344ZM473.594 311.155C471.434 308.535 470.298 305.807 469.611 302.165L467.224 288.509C465.859 281.792 462.103 278.041 456.301 276.786V276.558C463.581 275.076 470.298 268.591 470.298 258.01C470.313 242.402 460.067 235.137 443.342 235.137H411.365V311.155H432.756V285.455H439.359C443.342 285.455 445.388 287.278 446.184 291.83L447.553 302.526C448.235 306.395 449.036 308.896 450.622 311.175L473.594 311.155ZM440.718 269.051H432.756V252.549H440.718C445.952 252.549 448.131 255.282 448.131 260.629C448.131 266.432 445.853 269.031 440.718 269.031V269.051ZM388.428 311.135V253.003H407.322V235.137H347.698V253.003H366.701V311.155L388.428 311.135ZM345.825 288.509C345.825 261.766 311.456 266.432 311.456 256.077C311.456 252.662 314.075 250.502 317.94 250.502C322.037 250.502 325.68 253.468 326.248 258.806L345.029 254.026C342.859 241.285 333.405 234 317.925 234C302.224 234 289.818 243.217 289.818 258.124C289.818 284.185 323.96 279.292 323.96 290.1C323.96 293.743 320.995 295.675 316.902 295.675C311.668 295.675 307.116 292.038 306.434 285.791L288 292.606C290.505 304.666 301.428 312.292 316.902 312.292C332.481 312.292 345.825 303.756 345.825 288.509Z" fill="black"/>
<path d="M889.25 377.822V371.427H870.85V371.135L878.13 363.722C880.393 361.6 882.534 359.351 884.54 356.985C885.851 355.463 886.926 353.752 887.728 351.909C888.324 350.428 888.633 348.846 888.637 347.249C888.674 345.015 888.052 342.82 886.848 340.937C885.614 339.054 883.883 337.549 881.846 336.588C879.516 335.486 876.961 334.941 874.383 334.997C871.818 334.947 869.278 335.506 866.97 336.628C864.883 337.655 863.129 339.25 861.909 341.229C860.648 343.338 860.01 345.761 860.07 348.217H867.35C867.316 346.921 867.612 345.637 868.21 344.486C868.762 343.458 869.604 342.616 870.632 342.064C871.757 341.472 873.014 341.176 874.285 341.204C875.532 341.182 876.767 341.452 877.892 341.99C878.907 342.485 879.763 343.253 880.364 344.209C880.992 345.242 881.308 346.435 881.273 347.644C881.279 348.781 881.039 349.905 880.571 350.941C880.021 352.099 879.312 353.175 878.466 354.138C877.53 355.239 876.362 356.498 874.962 357.914L860.293 372.292V377.822H889.25ZM855.439 377.822V371.427H837.039V371.135L844.324 363.722C846.577 361.595 848.707 359.343 850.705 356.975C852.02 355.456 853.095 353.744 853.892 351.9C854.491 350.419 854.8 348.836 854.802 347.239C854.837 345.006 854.217 342.812 853.018 340.928C851.782 339.045 850.052 337.54 848.016 336.578C845.684 335.476 843.127 334.931 840.548 334.987C837.983 334.936 835.442 335.495 833.135 336.618C831.046 337.644 829.29 339.239 828.069 341.219C826.802 343.33 826.161 345.757 826.22 348.217H833.505C833.469 346.921 833.763 345.637 834.36 344.486C834.912 343.458 835.754 342.616 836.782 342.064C837.907 341.472 839.164 341.176 840.434 341.204C841.682 341.182 842.917 341.451 844.042 341.99C845.067 342.479 845.932 343.249 846.538 344.209C847.167 345.242 847.482 346.435 847.448 347.644C847.455 348.781 847.216 349.906 846.746 350.941C846.199 352.101 845.49 353.178 844.64 354.138C843.708 355.239 842.54 356.498 841.136 357.914L826.472 372.292V377.822H855.439ZM801.163 370.409C799.884 369.249 798.896 367.521 798.197 365.224C797.445 362.455 797.101 359.591 797.174 356.723C797.174 351.692 797.945 347.873 799.487 345.267C801.029 342.661 803.105 341.358 805.715 341.358C807.395 341.33 809.02 341.953 810.252 343.097C811.53 344.264 812.518 345.987 813.217 348.267C813.976 351.02 814.329 353.868 814.265 356.723C814.265 361.801 813.499 365.641 811.967 368.244C810.434 370.847 808.347 372.15 805.705 372.153C804.018 372.18 802.386 371.555 801.148 370.409H801.163ZM814.443 376.033C816.868 374.313 818.731 371.82 820.032 368.555C821.334 365.29 821.983 361.346 821.98 356.723C821.98 352.133 821.331 348.214 820.032 344.965C818.734 341.717 816.868 339.245 814.433 337.552C811.831 335.88 808.804 334.992 805.712 334.992C802.62 334.992 799.593 335.88 796.991 337.552C794.563 339.255 792.7 341.727 791.401 344.965C790.103 348.204 789.444 352.127 789.425 356.733C789.425 361.346 790.075 365.282 791.377 368.54C792.678 371.799 794.542 374.295 796.967 376.028C799.568 377.713 802.602 378.61 805.702 378.61C808.802 378.61 811.836 377.713 814.438 376.028L814.443 376.033ZM785.49 377.822V371.427H767.09V371.135L774.37 363.722C776.624 361.6 778.754 359.35 780.751 356.985C782.064 355.464 783.139 353.753 783.939 351.909C784.535 350.428 784.844 348.846 784.848 347.249C784.883 345.016 784.263 342.821 783.064 340.937C781.828 339.054 780.095 337.549 778.057 336.588C775.727 335.486 773.172 334.941 770.594 334.997C768.029 334.947 765.488 335.506 763.181 336.628C761.092 337.66 759.337 339.262 758.12 341.249C756.859 343.358 756.221 345.781 756.281 348.237H763.561C763.527 346.941 763.823 345.656 764.421 344.506C764.973 343.478 765.815 342.636 766.843 342.084C767.968 341.491 769.225 341.195 770.495 341.224C771.743 341.202 772.978 341.471 774.103 342.01C775.125 342.496 775.99 343.26 776.599 344.214C777.228 345.247 777.543 346.44 777.509 347.649C777.514 348.786 777.275 349.91 776.807 350.946C776.256 352.104 775.548 353.18 774.701 354.143C773.766 355.244 772.598 356.502 771.197 357.919L756.533 372.292V377.822H785.49Z" fill="black"/>
</g>
<path d="M505.918 548.545H509.114L514.67 562.114H514.875L520.432 548.545H523.628V566H521.122V553.369H520.96L515.812 565.974H513.733L508.585 553.361H508.423V566H505.918V548.545ZM530.602 566.29C529.772 566.29 529.022 566.136 528.352 565.83C527.681 565.517 527.15 565.065 526.758 564.474C526.372 563.884 526.178 563.159 526.178 562.301C526.178 561.562 526.321 560.955 526.605 560.477C526.889 560 527.272 559.622 527.755 559.344C528.238 559.065 528.778 558.855 529.375 558.713C529.971 558.571 530.579 558.463 531.198 558.389C531.982 558.298 532.619 558.224 533.107 558.168C533.596 558.105 533.951 558.006 534.173 557.869C534.394 557.733 534.505 557.511 534.505 557.205V557.145C534.505 556.401 534.295 555.824 533.875 555.415C533.46 555.006 532.84 554.801 532.017 554.801C531.159 554.801 530.482 554.991 529.988 555.372C529.5 555.747 529.161 556.165 528.974 556.625L526.579 556.08C526.863 555.284 527.278 554.642 527.823 554.153C528.375 553.659 529.008 553.301 529.724 553.08C530.44 552.852 531.193 552.739 531.982 552.739C532.505 552.739 533.059 552.801 533.644 552.926C534.235 553.045 534.786 553.267 535.298 553.591C535.815 553.915 536.238 554.378 536.568 554.98C536.897 555.577 537.062 556.352 537.062 557.307V566H534.573V564.21H534.471C534.306 564.54 534.059 564.864 533.73 565.182C533.4 565.5 532.977 565.764 532.46 565.974C531.943 566.185 531.323 566.29 530.602 566.29ZM531.156 564.244C531.86 564.244 532.463 564.105 532.963 563.827C533.468 563.548 533.852 563.185 534.113 562.736C534.38 562.281 534.514 561.795 534.514 561.278V559.591C534.423 559.682 534.247 559.767 533.985 559.847C533.73 559.92 533.437 559.986 533.107 560.043C532.778 560.094 532.457 560.142 532.144 560.188C531.832 560.227 531.571 560.261 531.36 560.29C530.866 560.352 530.414 560.457 530.005 560.605C529.602 560.753 529.278 560.966 529.034 561.244C528.795 561.517 528.676 561.881 528.676 562.335C528.676 562.966 528.909 563.443 529.375 563.767C529.84 564.085 530.434 564.244 531.156 564.244ZM541.138 570.909C540.758 570.909 540.411 570.878 540.098 570.815C539.786 570.759 539.553 570.696 539.4 570.628L540.013 568.54C540.479 568.665 540.894 568.719 541.258 568.702C541.621 568.685 541.942 568.548 542.221 568.293C542.505 568.037 542.755 567.619 542.971 567.04L543.286 566.17L538.496 552.909H541.223L544.539 563.068H544.675L547.991 552.909H550.726L545.331 567.747C545.081 568.429 544.763 569.006 544.377 569.477C543.991 569.955 543.53 570.313 542.996 570.551C542.462 570.79 541.843 570.909 541.138 570.909ZM558.519 566V564.091L564.425 557.972C565.056 557.307 565.575 556.724 565.985 556.224C566.399 555.719 566.709 555.239 566.914 554.784C567.118 554.33 567.22 553.847 567.22 553.335C567.22 552.756 567.084 552.256 566.811 551.835C566.539 551.409 566.166 551.082 565.695 550.855C565.223 550.622 564.692 550.506 564.101 550.506C563.476 550.506 562.931 550.634 562.465 550.889C561.999 551.145 561.641 551.506 561.391 551.972C561.141 552.437 561.016 552.983 561.016 553.608H558.502C558.502 552.545 558.746 551.616 559.235 550.821C559.723 550.026 560.394 549.409 561.246 548.972C562.098 548.528 563.067 548.307 564.152 548.307C565.249 548.307 566.215 548.526 567.05 548.963C567.891 549.395 568.547 549.986 569.019 550.736C569.49 551.48 569.726 552.321 569.726 553.259C569.726 553.906 569.604 554.54 569.36 555.159C569.121 555.778 568.703 556.469 568.107 557.23C567.51 557.986 566.681 558.903 565.618 559.983L562.149 563.614V563.741H570.007V566H558.519ZM578.539 566.239C577.471 566.239 576.51 566.034 575.658 565.625C574.812 565.21 574.135 564.642 573.63 563.92C573.124 563.199 572.854 562.375 572.82 561.449H575.377C575.439 562.199 575.772 562.815 576.374 563.298C576.976 563.781 577.698 564.023 578.539 564.023C579.209 564.023 579.803 563.869 580.32 563.562C580.843 563.25 581.252 562.821 581.547 562.276C581.848 561.73 581.999 561.108 581.999 560.409C581.999 559.699 581.846 559.065 581.539 558.509C581.232 557.952 580.809 557.514 580.269 557.196C579.735 556.878 579.121 556.716 578.428 556.71C577.9 556.71 577.368 556.801 576.834 556.983C576.3 557.165 575.868 557.403 575.539 557.699L573.127 557.341L574.107 548.545H583.704V550.804H576.297L575.743 555.688H575.846C576.187 555.358 576.638 555.082 577.201 554.861C577.769 554.639 578.377 554.528 579.025 554.528C580.087 554.528 581.033 554.781 581.863 555.287C582.698 555.793 583.354 556.483 583.831 557.358C584.314 558.227 584.553 559.227 584.547 560.358C584.553 561.489 584.297 562.497 583.78 563.384C583.269 564.27 582.559 564.969 581.65 565.48C580.746 565.986 579.709 566.239 578.539 566.239ZM597.521 556.173V558.381H585.521V556.173H597.521ZM598.74 566V564.091L604.646 557.972C605.277 557.307 605.797 556.724 606.206 556.224C606.621 555.719 606.931 555.239 607.135 554.784C607.34 554.33 607.442 553.847 607.442 553.335C607.442 552.756 607.306 552.256 607.033 551.835C606.76 551.409 606.388 551.082 605.916 550.855C605.445 550.622 604.914 550.506 604.323 550.506C603.698 550.506 603.152 550.634 602.686 550.889C602.22 551.145 601.862 551.506 601.612 551.972C601.362 552.437 601.237 552.983 601.237 553.608H598.723C598.723 552.545 598.967 551.616 599.456 550.821C599.945 550.026 600.615 549.409 601.467 548.972C602.32 548.528 603.289 548.307 604.374 548.307C605.47 548.307 606.436 548.526 607.271 548.963C608.112 549.395 608.769 549.986 609.24 550.736C609.712 551.48 609.948 552.321 609.948 553.259C609.948 553.906 609.825 554.54 609.581 555.159C609.342 555.778 608.925 556.469 608.328 557.23C607.732 557.986 606.902 558.903 605.84 559.983L602.371 563.614V563.741H610.229V566H598.74ZM619.093 566.239C618.314 566.227 617.547 566.085 616.792 565.812C616.042 565.54 615.36 565.085 614.746 564.449C614.132 563.812 613.641 562.957 613.272 561.884C612.908 560.81 612.726 559.469 612.726 557.861C612.726 556.338 612.877 554.986 613.178 553.804C613.485 552.622 613.925 551.625 614.499 550.812C615.073 549.994 615.766 549.372 616.579 548.946C617.391 548.52 618.303 548.307 619.314 548.307C620.354 548.307 621.277 548.511 622.084 548.92C622.891 549.33 623.544 549.895 624.044 550.616C624.55 551.338 624.871 552.159 625.007 553.08H622.408C622.232 552.352 621.883 551.759 621.36 551.298C620.837 550.838 620.155 550.608 619.314 550.608C618.036 550.608 617.039 551.165 616.323 552.278C615.613 553.392 615.255 554.94 615.249 556.923H615.377C615.678 556.429 616.047 556.009 616.485 555.662C616.928 555.31 617.422 555.04 617.968 554.852C618.519 554.659 619.098 554.562 619.706 554.562C620.718 554.562 621.633 554.81 622.451 555.304C623.275 555.793 623.931 556.469 624.419 557.332C624.908 558.196 625.152 559.185 625.152 560.298C625.152 561.412 624.9 562.42 624.394 563.324C623.894 564.227 623.189 564.943 622.28 565.472C621.371 565.994 620.309 566.25 619.093 566.239ZM619.084 564.023C619.755 564.023 620.354 563.858 620.882 563.528C621.411 563.199 621.829 562.756 622.135 562.199C622.442 561.642 622.596 561.02 622.596 560.332C622.596 559.662 622.445 559.051 622.144 558.5C621.848 557.949 621.439 557.511 620.917 557.188C620.4 556.864 619.809 556.702 619.144 556.702C618.638 556.702 618.169 556.798 617.738 556.991C617.311 557.185 616.936 557.452 616.613 557.793C616.289 558.134 616.033 558.526 615.846 558.969C615.664 559.406 615.573 559.869 615.573 560.358C615.573 561.011 615.723 561.616 616.025 562.173C616.331 562.73 616.749 563.179 617.277 563.52C617.811 563.855 618.414 564.023 619.084 564.023ZM630.349 563.614L630.222 564.543C630.136 565.224 629.991 565.935 629.787 566.673C629.588 567.418 629.381 568.108 629.165 568.744C628.954 569.381 628.781 569.886 628.645 570.261H626.838C626.912 569.909 627.014 569.432 627.145 568.83C627.275 568.233 627.403 567.565 627.528 566.827C627.653 566.088 627.747 565.335 627.81 564.568L627.895 563.614H630.349ZM639.064 566V564.091L644.971 557.972C645.601 557.307 646.121 556.724 646.53 556.224C646.945 555.719 647.255 555.239 647.459 554.784C647.664 554.33 647.766 553.847 647.766 553.335C647.766 552.756 647.63 552.256 647.357 551.835C647.084 551.409 646.712 551.082 646.24 550.855C645.769 550.622 645.238 550.506 644.647 550.506C644.022 550.506 643.476 550.634 643.01 550.889C642.544 551.145 642.186 551.506 641.936 551.972C641.686 552.437 641.561 552.983 641.561 553.608H639.047C639.047 552.545 639.292 551.616 639.78 550.821C640.269 550.026 640.939 549.409 641.792 548.972C642.644 548.528 643.613 548.307 644.698 548.307C645.794 548.307 646.76 548.526 647.596 548.963C648.436 549.395 649.093 549.986 649.564 550.736C650.036 551.48 650.272 552.321 650.272 553.259C650.272 553.906 650.15 554.54 649.905 555.159C649.667 555.778 649.249 556.469 648.652 557.23C648.056 557.986 647.226 558.903 646.164 559.983L642.695 563.614V563.741H650.553V566H639.064ZM659.4 566.29C658.053 566.284 656.903 565.929 655.948 565.224C654.993 564.52 654.263 563.494 653.758 562.148C653.252 560.801 652.999 559.179 652.999 557.281C652.999 555.389 653.252 553.773 653.758 552.432C654.269 551.091 655.002 550.068 655.957 549.364C656.917 548.659 658.065 548.307 659.4 548.307C660.735 548.307 661.88 548.662 662.834 549.372C663.789 550.077 664.519 551.099 665.025 552.44C665.536 553.776 665.792 555.389 665.792 557.281C665.792 559.185 665.539 560.81 665.033 562.156C664.528 563.497 663.797 564.523 662.843 565.233C661.888 565.938 660.741 566.29 659.4 566.29ZM659.4 564.014C660.582 564.014 661.505 563.438 662.17 562.284C662.84 561.131 663.175 559.463 663.175 557.281C663.175 555.832 663.022 554.608 662.715 553.608C662.414 552.602 661.979 551.841 661.411 551.324C660.849 550.801 660.178 550.54 659.4 550.54C658.224 550.54 657.3 551.119 656.63 552.278C655.959 553.437 655.621 555.105 655.616 557.281C655.616 558.736 655.766 559.966 656.067 560.972C656.374 561.972 656.809 562.73 657.371 563.247C657.934 563.759 658.61 564.014 659.4 564.014ZM668.355 566V564.091L674.261 557.972C674.892 557.307 675.412 556.724 675.821 556.224C676.236 555.719 676.546 555.239 676.75 554.784C676.955 554.33 677.057 553.847 677.057 553.335C677.057 552.756 676.921 552.256 676.648 551.835C676.375 551.409 676.003 551.082 675.531 550.855C675.06 550.622 674.529 550.506 673.938 550.506C673.313 550.506 672.767 550.634 672.301 550.889C671.835 551.145 671.477 551.506 671.227 551.972C670.977 552.437 670.852 552.983 670.852 553.608H668.338C668.338 552.545 668.583 551.616 669.071 550.821C669.56 550.026 670.23 549.409 671.083 548.972C671.935 548.528 672.904 548.307 673.989 548.307C675.085 548.307 676.051 548.526 676.886 548.963C677.727 549.395 678.384 549.986 678.855 550.736C679.327 551.48 679.563 552.321 679.563 553.259C679.563 553.906 679.44 554.54 679.196 555.159C678.958 555.778 678.54 556.469 677.943 557.23C677.347 557.986 676.517 558.903 675.455 559.983L671.986 563.614V563.741H679.844V566H668.355ZM682.614 566V564.091L688.52 557.972C689.151 557.307 689.671 556.724 690.08 556.224C690.495 555.719 690.804 555.239 691.009 554.784C691.213 554.33 691.316 553.847 691.316 553.335C691.316 552.756 691.179 552.256 690.907 551.835C690.634 551.409 690.262 551.082 689.79 550.855C689.319 550.622 688.787 550.506 688.196 550.506C687.571 550.506 687.026 550.634 686.56 550.889C686.094 551.145 685.736 551.506 685.486 551.972C685.236 552.437 685.111 552.983 685.111 553.608H682.597C682.597 552.545 682.841 551.616 683.33 550.821C683.819 550.026 684.489 549.409 685.341 548.972C686.194 548.528 687.162 548.307 688.247 548.307C689.344 548.307 690.31 548.526 691.145 548.963C691.986 549.395 692.642 549.986 693.114 550.736C693.586 551.48 693.821 552.321 693.821 553.259C693.821 553.906 693.699 554.54 693.455 555.159C693.216 555.778 692.799 556.469 692.202 557.23C691.605 557.986 690.776 558.903 689.713 559.983L686.245 563.614V563.741H694.103V566H682.614Z" fill="black"/>
<defs>
<clipPath id="clip0_1095_9581">
<rect width="378.667" height="598" fill="white" transform="translate(16.0001 16)"/>
</clipPath>
<clipPath id="clip1_1095_9581">
<rect width="378.667" height="598" fill="white" transform="translate(805.333 16)"/>
</clipPath>
<clipPath id="clip2_1095_9581">
<rect width="624.331" height="162" fill="white" transform="translate(288 234)"/>
</clipPath>
</defs>
</svg>
